<svg xmlns="http://www.w3.org/2000/svg" xmlns:xlink="http://www.w3.org/1999/xlink" width="16.72" height="16.75" viewBox="0 0 16.72 16.75">
  <defs>
    <style>
      .cls-1 {
        fill: #95d6d3;
        fill-rule: evenodd;
        filter: url(#filter);
      }
    </style>
    <filter id="filter" x="1525.78" y="15.125" width="16.72" height="16.75" filterUnits="userSpaceOnUse">
      <feFlood result="flood" flood-color="#fff"/>
      <feComposite result="composite" operator="in" in2="SourceGraphic"/>
      <feBlend result="blend" in2="SourceGraphic"/>
    </filter>
  </defs>
  <path id="instagram_.svg" data-name="instagram .svg" class="cls-1" d="M1541.15,31.86h-14.03a1.337,1.337,0,0,1-1.33-1.338V16.477a1.337,1.337,0,0,1,1.33-1.338h14.03a1.339,1.339,0,0,1,1.34,1.338V30.522A1.339,1.339,0,0,1,1541.15,31.86Zm-7.01-11.37a3.01,3.01,0,1,0,3.01,3.01A3.011,3.011,0,0,0,1534.14,20.49Zm6.45-2.436a1.011,1.011,0,0,0-1.01-1.015h-1.02a1.011,1.011,0,0,0-1.01,1.015v1.015a1.011,1.011,0,0,0,1.01,1.015h1.02a1.011,1.011,0,0,0,1.01-1.015V18.054Zm0,3.926h-1.14a6.976,6.976,0,0,1,.03,1.52,5.345,5.345,0,1,1-10.69,0,6.976,6.976,0,0,1,.03-1.52h-1.13V29.2a0.834,0.834,0,0,0,.75.76h11.39a0.835,0.835,0,0,0,.76-0.76V21.98Z" transform="translate(-1525.78 -15.125)"/>
</svg>
