<svg xmlns="http://www.w3.org/2000/svg" width="22.94" height="39" viewBox="0 0 22.94 39">
  <defs>
    <style>
      .cls-1 {
        fill: #f7087a;
        fill-rule: evenodd;
      }
    </style>
  </defs>
  <path id="phone.svg" class="cls-1" d="M1237.03,74h-17.06a2.9,2.9,0,0,0-2.95,2.841v33.326a2.9,2.9,0,0,0,2.95,2.838h17.06a2.9,2.9,0,0,0,2.95-2.838V76.838A2.9,2.9,0,0,0,1237.03,74Zm-12.74,1.725h8.42a0.8,0.8,0,0,1,0,1.369h-8.42A0.806,0.806,0,0,1,1224.29,75.722Zm4.21,34.476a1.813,1.813,0,1,1,1.88-1.814A1.848,1.848,0,0,1,1228.5,110.2Zm9.27-6.21h-18.54v-25.2h18.54v25.2Z" transform="translate(-1217.03 -74)"/>
</svg>
