<svg xmlns="http://www.w3.org/2000/svg" xmlns:xlink="http://www.w3.org/1999/xlink" width="19.75" height="11.5" viewBox="0 0 19.75 11.5">
  <defs>
    <style>
      .cls-1 {
        fill: #95d6d3;
        fill-rule: evenodd;
        filter: url(#filter);
      }
    </style>
    <filter id="filter" x="1367" y="17.813" width="19.75" height="11.5" filterUnits="userSpaceOnUse">
      <feFlood result="flood" flood-color="#fff"/>
      <feComposite result="composite" operator="in" in2="SourceGraphic"/>
      <feBlend result="blend" in2="SourceGraphic"/>
    </filter>
  </defs>
  <path id="vk.svg" class="cls-1" d="M1376.66,29.185h1.18a0.988,0.988,0,0,0,.54-0.239,0.857,0.857,0,0,0,.16-0.525s-0.02-1.622.72-1.859c0.72-.233,1.65,1.551,2.64,2.237a1.76,1.76,0,0,0,1.31.385l2.63,0s1.38-.106.73-1.205a8.791,8.791,0,0,0-1.96-2.3c-1.65-1.555-1.43-1.3.56-3.994,1.21-1.639,1.7-2.639,1.54-3.067a1.152,1.152,0,0,0-1.02-.338h-2.98a0.7,0.7,0,0,0-.38.078,0.83,0.83,0,0,0-.26.348,16.94,16.94,0,0,1-1.1,2.369c-1.32,2.275-1.85,2.4-2.07,2.254-0.5-.329-0.37-1.323-0.37-2.028,0-2.205.33-3.125-.65-3.362a4.977,4.977,0,0,0-1.38-.139,6.274,6.274,0,0,0-2.46.255c-0.34.168-.6,0.541-0.44,0.563a1.315,1.315,0,0,1,.87.447,2.894,2.894,0,0,1,.3,1.361s0.17,2.6-.41,2.918c-0.4.221-.95-0.23-2.13-2.295a19.439,19.439,0,0,1-1.06-2.248,0.945,0.945,0,0,0-.24-0.335,1.22,1.22,0,0,0-.46-0.187h-2.82a0.963,0.963,0,0,0-.58.2,0.622,0.622,0,0,0-.01.509s2.21,5.277,4.71,7.916A6.776,6.776,0,0,0,1376.66,29.185Z" transform="translate(-1367 -17.813)"/>
</svg>
